G04 EAGLE Gerber RS-274X export*
G75*
%MOMM*%
%FSLAX34Y34*%
%LPD*%
%INSoldermask Top*%
%IPPOS*%
%AMOC8*
5,1,8,0,0,1.08239X$1,22.5*%
G01*
%ADD10C,3.453200*%
%ADD11P,1.843527X8X292.500000*%
%ADD12C,1.703200*%
%ADD13C,2.133600*%
%ADD14C,1.727200*%
%ADD15C,2.153200*%
%ADD16P,1.767759X8X112.500000*%
%ADD17P,1.767759X8X292.500000*%
%ADD18C,2.003200*%
%ADD19P,1.843527X8X247.500000*%
%ADD20R,1.853200X1.853200*%
%ADD21C,1.853200*%
%ADD22C,1.879600*%
%ADD23P,2.034460X8X22.500000*%

G36*
X230020Y119242D02*
X230020Y119242D01*
X230039Y119240D01*
X230141Y119262D01*
X230243Y119279D01*
X230260Y119288D01*
X230280Y119292D01*
X230369Y119345D01*
X230460Y119394D01*
X230474Y119408D01*
X230491Y119418D01*
X230558Y119497D01*
X230630Y119572D01*
X230638Y119590D01*
X230651Y119605D01*
X230690Y119701D01*
X230733Y119795D01*
X230735Y119815D01*
X230743Y119833D01*
X230761Y120000D01*
X230761Y280000D01*
X230758Y280020D01*
X230760Y280039D01*
X230738Y280141D01*
X230722Y280243D01*
X230712Y280260D01*
X230708Y280280D01*
X230655Y280369D01*
X230606Y280460D01*
X230592Y280474D01*
X230582Y280491D01*
X230503Y280558D01*
X230428Y280630D01*
X230410Y280638D01*
X230395Y280651D01*
X230299Y280690D01*
X230205Y280733D01*
X230185Y280735D01*
X230167Y280743D01*
X230000Y280761D01*
X120000Y280761D01*
X119980Y280758D01*
X119961Y280760D01*
X119859Y280738D01*
X119757Y280722D01*
X119740Y280712D01*
X119720Y280708D01*
X119631Y280655D01*
X119540Y280606D01*
X119526Y280592D01*
X119509Y280582D01*
X119442Y280503D01*
X119371Y280428D01*
X119362Y280410D01*
X119349Y280395D01*
X119310Y280299D01*
X119267Y280205D01*
X119265Y280185D01*
X119257Y280167D01*
X119239Y280000D01*
X119239Y120000D01*
X119242Y119980D01*
X119240Y119961D01*
X119262Y119859D01*
X119279Y119757D01*
X119288Y119740D01*
X119292Y119720D01*
X119345Y119631D01*
X119394Y119540D01*
X119408Y119526D01*
X119418Y119509D01*
X119497Y119442D01*
X119572Y119371D01*
X119590Y119362D01*
X119605Y119349D01*
X119701Y119310D01*
X119795Y119267D01*
X119815Y119265D01*
X119833Y119257D01*
X120000Y119239D01*
X230000Y119239D01*
X230020Y119242D01*
G37*
D10*
X300000Y155000D03*
X50000Y154000D03*
X175000Y249000D03*
D11*
X110000Y59840D03*
D12*
X110000Y80160D03*
D11*
X230000Y70400D03*
X230000Y19600D03*
D13*
X258000Y239800D03*
X258000Y138200D03*
D14*
X149600Y68320D02*
X149600Y53080D01*
X175000Y53080D02*
X175000Y68320D01*
X200400Y68320D02*
X200400Y53080D01*
D15*
X317500Y40000D03*
X282500Y40000D03*
D16*
X36000Y18200D03*
X36000Y119800D03*
D17*
X64000Y119800D03*
X64000Y18200D03*
D18*
X291000Y322000D02*
X309000Y322000D01*
X309000Y264000D02*
X291000Y264000D01*
X252000Y285000D02*
X252000Y303000D01*
D19*
X279961Y121961D03*
X244039Y86039D03*
D20*
X207300Y330000D03*
D21*
X232700Y330000D03*
D22*
X330000Y210000D03*
X330000Y235400D03*
X330000Y184600D03*
X20000Y210000D03*
X20000Y184600D03*
X20000Y235400D03*
D17*
X50000Y320800D03*
X50000Y219200D03*
X80000Y320800D03*
X80000Y219200D03*
D23*
X127300Y316000D03*
X152700Y316000D03*
D13*
X99200Y22000D03*
X200800Y22000D03*
M02*
