G04 EAGLE Gerber RS-274X export*
G75*
%MOMM*%
%FSLAX34Y34*%
%LPD*%
%INBottom Copper*%
%IPPOS*%
%AMOC8*
5,1,8,0,0,1.08239X$1,22.5*%
G01*
%ADD10P,1.623585X8X292.500000*%
%ADD11C,1.500000*%
%ADD12C,1.930400*%
%ADD13C,1.524000*%
%ADD14C,1.950000*%
%ADD15P,1.547818X8X112.500000*%
%ADD16P,1.547818X8X292.500000*%
%ADD17C,1.800000*%
%ADD18P,1.623585X8X247.500000*%
%ADD19R,1.650000X1.650000*%
%ADD20C,1.650000*%
%ADD21C,1.676400*%
%ADD22P,1.814519X8X22.500000*%
%ADD23C,0.914400*%

G36*
X28524Y10934D02*
X28524Y10934D01*
X28596Y10936D01*
X28645Y10954D01*
X28696Y10962D01*
X28759Y10996D01*
X28827Y11021D01*
X28867Y11053D01*
X28913Y11078D01*
X28963Y11130D01*
X29019Y11174D01*
X29047Y11218D01*
X29083Y11256D01*
X29113Y11321D01*
X29152Y11381D01*
X29164Y11432D01*
X29186Y11479D01*
X29194Y11550D01*
X29212Y11620D01*
X29208Y11672D01*
X29213Y11723D01*
X29198Y11794D01*
X29193Y11865D01*
X29172Y11913D01*
X29161Y11964D01*
X29124Y12025D01*
X29096Y12091D01*
X29051Y12147D01*
X29035Y12175D01*
X29017Y12190D01*
X28991Y12222D01*
X26817Y14396D01*
X26817Y22004D01*
X32196Y27383D01*
X39804Y27383D01*
X45183Y22004D01*
X45183Y14396D01*
X43009Y12222D01*
X42967Y12164D01*
X42917Y12112D01*
X42895Y12065D01*
X42865Y12023D01*
X42844Y11954D01*
X42814Y11889D01*
X42808Y11837D01*
X42793Y11787D01*
X42795Y11716D01*
X42787Y11645D01*
X42798Y11594D01*
X42799Y11542D01*
X42824Y11474D01*
X42839Y11404D01*
X42866Y11359D01*
X42883Y11311D01*
X42928Y11255D01*
X42965Y11193D01*
X43005Y11159D01*
X43037Y11119D01*
X43097Y11080D01*
X43152Y11033D01*
X43200Y11014D01*
X43244Y10986D01*
X43314Y10968D01*
X43380Y10941D01*
X43451Y10933D01*
X43483Y10925D01*
X43506Y10927D01*
X43547Y10923D01*
X56453Y10923D01*
X56524Y10934D01*
X56596Y10936D01*
X56645Y10954D01*
X56696Y10962D01*
X56759Y10996D01*
X56827Y11021D01*
X56867Y11053D01*
X56913Y11078D01*
X56963Y11130D01*
X57019Y11174D01*
X57047Y11218D01*
X57083Y11256D01*
X57113Y11321D01*
X57152Y11381D01*
X57164Y11432D01*
X57186Y11479D01*
X57194Y11550D01*
X57212Y11620D01*
X57208Y11672D01*
X57213Y11723D01*
X57198Y11794D01*
X57193Y11865D01*
X57172Y11913D01*
X57161Y11964D01*
X57124Y12025D01*
X57096Y12091D01*
X57051Y12147D01*
X57035Y12175D01*
X57017Y12190D01*
X56991Y12222D01*
X54817Y14396D01*
X54817Y22004D01*
X60196Y27383D01*
X67804Y27383D01*
X73183Y22004D01*
X73183Y14396D01*
X71009Y12222D01*
X70967Y12164D01*
X70917Y12112D01*
X70895Y12065D01*
X70865Y12023D01*
X70844Y11954D01*
X70814Y11889D01*
X70808Y11837D01*
X70793Y11787D01*
X70795Y11716D01*
X70787Y11645D01*
X70798Y11594D01*
X70799Y11542D01*
X70824Y11474D01*
X70839Y11404D01*
X70866Y11359D01*
X70883Y11311D01*
X70928Y11255D01*
X70965Y11193D01*
X71005Y11159D01*
X71037Y11119D01*
X71097Y11080D01*
X71152Y11033D01*
X71200Y11014D01*
X71244Y10986D01*
X71314Y10968D01*
X71380Y10941D01*
X71451Y10933D01*
X71483Y10925D01*
X71506Y10927D01*
X71547Y10923D01*
X91915Y10923D01*
X91985Y10934D01*
X92057Y10936D01*
X92106Y10954D01*
X92158Y10962D01*
X92221Y10996D01*
X92288Y11021D01*
X92329Y11053D01*
X92375Y11078D01*
X92424Y11130D01*
X92480Y11174D01*
X92508Y11218D01*
X92544Y11256D01*
X92574Y11321D01*
X92613Y11381D01*
X92626Y11432D01*
X92648Y11479D01*
X92656Y11550D01*
X92673Y11620D01*
X92669Y11672D01*
X92675Y11723D01*
X92660Y11794D01*
X92654Y11865D01*
X92634Y11913D01*
X92623Y11964D01*
X92586Y12025D01*
X92558Y12091D01*
X92513Y12147D01*
X92497Y12175D01*
X92479Y12190D01*
X92453Y12222D01*
X89294Y15381D01*
X87515Y19676D01*
X87515Y24324D01*
X89294Y28619D01*
X92581Y31906D01*
X96876Y33685D01*
X101524Y33685D01*
X105819Y31906D01*
X109106Y28619D01*
X110885Y24324D01*
X110885Y19676D01*
X109106Y15381D01*
X105947Y12222D01*
X105905Y12164D01*
X105856Y12112D01*
X105834Y12065D01*
X105803Y12023D01*
X105782Y11954D01*
X105752Y11889D01*
X105746Y11837D01*
X105731Y11787D01*
X105733Y11716D01*
X105725Y11645D01*
X105736Y11594D01*
X105737Y11542D01*
X105762Y11474D01*
X105777Y11404D01*
X105804Y11359D01*
X105822Y11311D01*
X105867Y11255D01*
X105903Y11193D01*
X105943Y11159D01*
X105976Y11119D01*
X106036Y11080D01*
X106090Y11033D01*
X106139Y11014D01*
X106182Y10986D01*
X106252Y10968D01*
X106319Y10941D01*
X106390Y10933D01*
X106421Y10925D01*
X106444Y10927D01*
X106485Y10923D01*
X193515Y10923D01*
X193585Y10934D01*
X193657Y10936D01*
X193706Y10954D01*
X193758Y10962D01*
X193821Y10996D01*
X193888Y11021D01*
X193929Y11053D01*
X193975Y11078D01*
X194024Y11130D01*
X194080Y11174D01*
X194108Y11218D01*
X194144Y11256D01*
X194174Y11321D01*
X194213Y11381D01*
X194226Y11432D01*
X194248Y11479D01*
X194256Y11550D01*
X194273Y11620D01*
X194269Y11672D01*
X194275Y11723D01*
X194260Y11794D01*
X194254Y11865D01*
X194234Y11913D01*
X194223Y11964D01*
X194186Y12025D01*
X194158Y12091D01*
X194113Y12147D01*
X194097Y12175D01*
X194079Y12190D01*
X194053Y12222D01*
X190894Y15381D01*
X189115Y19676D01*
X189115Y24324D01*
X190894Y28619D01*
X194181Y31906D01*
X198476Y33685D01*
X203124Y33685D01*
X207419Y31906D01*
X210706Y28619D01*
X212485Y24324D01*
X212485Y19676D01*
X210706Y15381D01*
X207547Y12222D01*
X207505Y12164D01*
X207456Y12112D01*
X207434Y12065D01*
X207403Y12023D01*
X207382Y11954D01*
X207352Y11889D01*
X207346Y11837D01*
X207331Y11787D01*
X207333Y11716D01*
X207325Y11645D01*
X207336Y11594D01*
X207337Y11542D01*
X207362Y11474D01*
X207377Y11404D01*
X207404Y11359D01*
X207422Y11311D01*
X207467Y11255D01*
X207503Y11193D01*
X207543Y11159D01*
X207576Y11119D01*
X207636Y11080D01*
X207690Y11033D01*
X207739Y11014D01*
X207782Y10986D01*
X207852Y10968D01*
X207919Y10941D01*
X207990Y10933D01*
X208021Y10925D01*
X208044Y10927D01*
X208085Y10923D01*
X222640Y10923D01*
X222710Y10934D01*
X222782Y10936D01*
X222831Y10954D01*
X222882Y10962D01*
X222946Y10996D01*
X223013Y11021D01*
X223054Y11053D01*
X223100Y11078D01*
X223149Y11130D01*
X223205Y11174D01*
X223233Y11218D01*
X223269Y11256D01*
X223299Y11321D01*
X223338Y11381D01*
X223351Y11432D01*
X223373Y11479D01*
X223381Y11550D01*
X223398Y11620D01*
X223394Y11672D01*
X223400Y11723D01*
X223385Y11794D01*
X223379Y11865D01*
X223359Y11913D01*
X223348Y11964D01*
X223311Y12025D01*
X223283Y12091D01*
X223238Y12147D01*
X223222Y12175D01*
X223204Y12190D01*
X223178Y12222D01*
X219959Y15441D01*
X219959Y18077D01*
X229238Y18077D01*
X229258Y18080D01*
X229277Y18078D01*
X229379Y18100D01*
X229481Y18117D01*
X229498Y18126D01*
X229518Y18130D01*
X229607Y18183D01*
X229698Y18232D01*
X229712Y18246D01*
X229729Y18256D01*
X229796Y18335D01*
X229867Y18410D01*
X229876Y18428D01*
X229889Y18443D01*
X229927Y18539D01*
X229971Y18633D01*
X229973Y18653D01*
X229981Y18671D01*
X229999Y18838D01*
X229999Y19601D01*
X230001Y19601D01*
X230001Y18838D01*
X230004Y18818D01*
X230002Y18799D01*
X230024Y18697D01*
X230041Y18595D01*
X230050Y18578D01*
X230054Y18558D01*
X230107Y18469D01*
X230156Y18378D01*
X230170Y18364D01*
X230180Y18347D01*
X230259Y18280D01*
X230334Y18209D01*
X230352Y18200D01*
X230367Y18187D01*
X230463Y18148D01*
X230557Y18105D01*
X230577Y18103D01*
X230595Y18095D01*
X230762Y18077D01*
X240041Y18077D01*
X240041Y15441D01*
X236822Y12222D01*
X236780Y12164D01*
X236731Y12112D01*
X236709Y12065D01*
X236678Y12023D01*
X236657Y11954D01*
X236627Y11889D01*
X236621Y11837D01*
X236606Y11787D01*
X236608Y11716D01*
X236600Y11645D01*
X236611Y11594D01*
X236612Y11542D01*
X236637Y11474D01*
X236652Y11404D01*
X236679Y11359D01*
X236697Y11311D01*
X236742Y11255D01*
X236778Y11193D01*
X236818Y11159D01*
X236851Y11119D01*
X236911Y11080D01*
X236965Y11033D01*
X237014Y11014D01*
X237058Y10986D01*
X237127Y10968D01*
X237194Y10941D01*
X237265Y10933D01*
X237296Y10925D01*
X237319Y10927D01*
X237360Y10923D01*
X335160Y10923D01*
X335250Y10937D01*
X335341Y10945D01*
X335371Y10957D01*
X335403Y10962D01*
X335484Y11005D01*
X335568Y11041D01*
X335600Y11067D01*
X335620Y11078D01*
X335643Y11101D01*
X335699Y11146D01*
X338854Y14301D01*
X338907Y14375D01*
X338967Y14445D01*
X338979Y14475D01*
X338998Y14501D01*
X339025Y14588D01*
X339059Y14673D01*
X339063Y14714D01*
X339070Y14736D01*
X339069Y14768D01*
X339077Y14840D01*
X339077Y177111D01*
X339066Y177182D01*
X339064Y177253D01*
X339046Y177302D01*
X339038Y177354D01*
X339004Y177417D01*
X338979Y177484D01*
X338947Y177525D01*
X338922Y177571D01*
X338870Y177620D01*
X338826Y177676D01*
X338782Y177704D01*
X338744Y177740D01*
X338679Y177770D01*
X338619Y177809D01*
X338568Y177822D01*
X338521Y177844D01*
X338450Y177852D01*
X338380Y177869D01*
X338328Y177865D01*
X338277Y177871D01*
X338206Y177856D01*
X338135Y177850D01*
X338087Y177830D01*
X338036Y177819D01*
X337975Y177782D01*
X337909Y177754D01*
X337853Y177709D01*
X337825Y177693D01*
X337810Y177675D01*
X337778Y177649D01*
X335900Y175771D01*
X332072Y174185D01*
X327928Y174185D01*
X324100Y175771D01*
X321171Y178700D01*
X319585Y182528D01*
X319585Y186672D01*
X321171Y190500D01*
X324100Y193429D01*
X327928Y195015D01*
X332072Y195015D01*
X335900Y193429D01*
X337778Y191551D01*
X337836Y191509D01*
X337888Y191460D01*
X337935Y191438D01*
X337977Y191407D01*
X338046Y191386D01*
X338111Y191356D01*
X338163Y191350D01*
X338213Y191335D01*
X338284Y191337D01*
X338355Y191329D01*
X338406Y191340D01*
X338458Y191341D01*
X338526Y191366D01*
X338596Y191381D01*
X338641Y191408D01*
X338689Y191426D01*
X338745Y191471D01*
X338807Y191507D01*
X338841Y191547D01*
X338881Y191580D01*
X338920Y191640D01*
X338967Y191694D01*
X338986Y191743D01*
X339014Y191786D01*
X339032Y191856D01*
X339039Y191874D01*
X339049Y191895D01*
X339050Y191900D01*
X339059Y191922D01*
X339067Y191994D01*
X339075Y192025D01*
X339073Y192048D01*
X339077Y192089D01*
X339077Y202511D01*
X339066Y202582D01*
X339064Y202653D01*
X339046Y202702D01*
X339038Y202754D01*
X339004Y202817D01*
X338979Y202884D01*
X338947Y202925D01*
X338922Y202971D01*
X338870Y203020D01*
X338826Y203076D01*
X338782Y203104D01*
X338744Y203140D01*
X338679Y203170D01*
X338619Y203209D01*
X338568Y203222D01*
X338521Y203244D01*
X338450Y203252D01*
X338380Y203269D01*
X338328Y203265D01*
X338277Y203271D01*
X338206Y203256D01*
X338135Y203250D01*
X338087Y203230D01*
X338036Y203219D01*
X337975Y203182D01*
X337909Y203154D01*
X337853Y203109D01*
X337825Y203093D01*
X337810Y203075D01*
X337778Y203049D01*
X335900Y201171D01*
X332072Y199585D01*
X327928Y199585D01*
X324100Y201171D01*
X321171Y204100D01*
X319585Y207928D01*
X319585Y212072D01*
X321171Y215900D01*
X324100Y218829D01*
X327928Y220415D01*
X332072Y220415D01*
X335900Y218829D01*
X337778Y216951D01*
X337836Y216909D01*
X337888Y216860D01*
X337935Y216838D01*
X337977Y216807D01*
X338046Y216786D01*
X338111Y216756D01*
X338163Y216750D01*
X338213Y216735D01*
X338284Y216737D01*
X338355Y216729D01*
X338406Y216740D01*
X338458Y216741D01*
X338526Y216766D01*
X338596Y216781D01*
X338641Y216808D01*
X338689Y216826D01*
X338745Y216871D01*
X338807Y216907D01*
X338841Y216947D01*
X338881Y216980D01*
X338920Y217040D01*
X338967Y217094D01*
X338986Y217143D01*
X339014Y217186D01*
X339032Y217256D01*
X339059Y217322D01*
X339067Y217394D01*
X339075Y217425D01*
X339073Y217448D01*
X339077Y217489D01*
X339077Y227911D01*
X339076Y227918D01*
X339075Y227923D01*
X339066Y227982D01*
X339064Y228053D01*
X339046Y228102D01*
X339038Y228154D01*
X339004Y228217D01*
X338979Y228284D01*
X338947Y228325D01*
X338922Y228371D01*
X338870Y228420D01*
X338826Y228476D01*
X338782Y228504D01*
X338744Y228540D01*
X338679Y228570D01*
X338619Y228609D01*
X338568Y228622D01*
X338521Y228644D01*
X338450Y228652D01*
X338380Y228669D01*
X338328Y228665D01*
X338277Y228671D01*
X338206Y228656D01*
X338135Y228650D01*
X338087Y228630D01*
X338036Y228619D01*
X337975Y228582D01*
X337909Y228554D01*
X337853Y228509D01*
X337825Y228493D01*
X337810Y228475D01*
X337778Y228449D01*
X335900Y226571D01*
X332072Y224985D01*
X327928Y224985D01*
X324100Y226571D01*
X321171Y229500D01*
X319585Y233328D01*
X319585Y237472D01*
X321171Y241300D01*
X324100Y244229D01*
X327928Y245815D01*
X332072Y245815D01*
X335900Y244229D01*
X337778Y242351D01*
X337836Y242309D01*
X337888Y242260D01*
X337935Y242238D01*
X337977Y242207D01*
X338046Y242186D01*
X338111Y242156D01*
X338163Y242150D01*
X338213Y242135D01*
X338284Y242137D01*
X338355Y242129D01*
X338406Y242140D01*
X338458Y242141D01*
X338526Y242166D01*
X338596Y242181D01*
X338641Y242208D01*
X338689Y242226D01*
X338745Y242271D01*
X338807Y242307D01*
X338841Y242347D01*
X338881Y242380D01*
X338920Y242440D01*
X338967Y242494D01*
X338986Y242543D01*
X339014Y242586D01*
X339032Y242656D01*
X339059Y242722D01*
X339067Y242794D01*
X339075Y242825D01*
X339073Y242848D01*
X339077Y242889D01*
X339077Y335160D01*
X339063Y335250D01*
X339055Y335341D01*
X339043Y335371D01*
X339038Y335403D01*
X338995Y335484D01*
X338959Y335568D01*
X338933Y335600D01*
X338922Y335620D01*
X338899Y335643D01*
X338854Y335699D01*
X335699Y338854D01*
X335625Y338907D01*
X335555Y338967D01*
X335525Y338979D01*
X335499Y338998D01*
X335412Y339025D01*
X335327Y339059D01*
X335286Y339063D01*
X335264Y339070D01*
X335232Y339069D01*
X335160Y339077D01*
X240003Y339077D01*
X239932Y339066D01*
X239860Y339064D01*
X239811Y339046D01*
X239760Y339038D01*
X239696Y339004D01*
X239629Y338979D01*
X239588Y338947D01*
X239542Y338922D01*
X239493Y338870D01*
X239437Y338826D01*
X239409Y338782D01*
X239373Y338744D01*
X239343Y338679D01*
X239304Y338619D01*
X239291Y338568D01*
X239269Y338521D01*
X239261Y338450D01*
X239244Y338380D01*
X239248Y338328D01*
X239242Y338277D01*
X239258Y338206D01*
X239263Y338135D01*
X239283Y338087D01*
X239295Y338036D01*
X239331Y337975D01*
X239359Y337909D01*
X239404Y337853D01*
X239421Y337825D01*
X239439Y337810D01*
X239464Y337778D01*
X241417Y335825D01*
X242983Y332045D01*
X242983Y327955D01*
X241417Y324175D01*
X238525Y321283D01*
X234745Y319717D01*
X230655Y319717D01*
X226875Y321283D01*
X223983Y324175D01*
X222417Y327955D01*
X222417Y332045D01*
X223983Y335825D01*
X225936Y337778D01*
X225978Y337836D01*
X226027Y337888D01*
X226049Y337935D01*
X226079Y337977D01*
X226100Y338046D01*
X226131Y338111D01*
X226136Y338163D01*
X226152Y338213D01*
X226150Y338284D01*
X226158Y338355D01*
X226147Y338406D01*
X226145Y338458D01*
X226121Y338526D01*
X226105Y338596D01*
X226079Y338641D01*
X226061Y338689D01*
X226016Y338745D01*
X225979Y338807D01*
X225940Y338841D01*
X225907Y338881D01*
X225847Y338920D01*
X225792Y338967D01*
X225744Y338986D01*
X225700Y339014D01*
X225631Y339032D01*
X225564Y339059D01*
X225493Y339067D01*
X225462Y339075D01*
X225438Y339073D01*
X225397Y339077D01*
X218852Y339077D01*
X218832Y339074D01*
X218813Y339076D01*
X218711Y339054D01*
X218609Y339038D01*
X218592Y339028D01*
X218572Y339024D01*
X218483Y338971D01*
X218392Y338922D01*
X218378Y338908D01*
X218361Y338898D01*
X218294Y338819D01*
X218222Y338744D01*
X218214Y338726D01*
X218201Y338711D01*
X218162Y338615D01*
X218119Y338521D01*
X218117Y338501D01*
X218109Y338483D01*
X218091Y338316D01*
X218091Y331523D01*
X208062Y331523D01*
X208042Y331520D01*
X208023Y331522D01*
X207921Y331500D01*
X207819Y331483D01*
X207802Y331474D01*
X207782Y331470D01*
X207693Y331417D01*
X207602Y331368D01*
X207588Y331354D01*
X207571Y331344D01*
X207504Y331265D01*
X207433Y331190D01*
X207424Y331172D01*
X207411Y331157D01*
X207373Y331061D01*
X207329Y330967D01*
X207327Y330947D01*
X207319Y330929D01*
X207301Y330762D01*
X207301Y329999D01*
X207299Y329999D01*
X207299Y330762D01*
X207296Y330782D01*
X207298Y330801D01*
X207276Y330903D01*
X207259Y331005D01*
X207250Y331022D01*
X207246Y331042D01*
X207193Y331131D01*
X207144Y331222D01*
X207130Y331236D01*
X207120Y331253D01*
X207041Y331320D01*
X206966Y331391D01*
X206948Y331400D01*
X206933Y331413D01*
X206837Y331452D01*
X206743Y331495D01*
X206723Y331497D01*
X206705Y331505D01*
X206538Y331523D01*
X196509Y331523D01*
X196509Y338316D01*
X196506Y338336D01*
X196508Y338355D01*
X196486Y338457D01*
X196470Y338559D01*
X196460Y338576D01*
X196456Y338596D01*
X196403Y338685D01*
X196354Y338776D01*
X196340Y338790D01*
X196330Y338807D01*
X196251Y338874D01*
X196176Y338946D01*
X196158Y338954D01*
X196143Y338967D01*
X196047Y339006D01*
X195953Y339049D01*
X195933Y339051D01*
X195915Y339059D01*
X195748Y339077D01*
X14840Y339077D01*
X14750Y339063D01*
X14659Y339055D01*
X14629Y339043D01*
X14597Y339038D01*
X14516Y338995D01*
X14432Y338959D01*
X14400Y338933D01*
X14380Y338922D01*
X14357Y338899D01*
X14301Y338854D01*
X11146Y335699D01*
X11093Y335625D01*
X11033Y335555D01*
X11021Y335525D01*
X11002Y335499D01*
X10975Y335412D01*
X10941Y335327D01*
X10937Y335286D01*
X10930Y335264D01*
X10931Y335232D01*
X10923Y335160D01*
X10923Y243608D01*
X10934Y243537D01*
X10936Y243465D01*
X10954Y243416D01*
X10962Y243365D01*
X10996Y243302D01*
X11021Y243234D01*
X11053Y243194D01*
X11078Y243147D01*
X11130Y243098D01*
X11174Y243042D01*
X11218Y243014D01*
X11256Y242978D01*
X11321Y242948D01*
X11381Y242909D01*
X11432Y242896D01*
X11479Y242874D01*
X11550Y242867D01*
X11620Y242849D01*
X11672Y242853D01*
X11723Y242847D01*
X11794Y242863D01*
X11865Y242868D01*
X11913Y242889D01*
X11964Y242900D01*
X12025Y242936D01*
X12091Y242965D01*
X12147Y243009D01*
X12175Y243026D01*
X12190Y243044D01*
X12222Y243069D01*
X12884Y243731D01*
X14275Y244742D01*
X15807Y245522D01*
X17442Y246054D01*
X18477Y246218D01*
X18477Y236162D01*
X18480Y236142D01*
X18478Y236123D01*
X18500Y236021D01*
X18517Y235919D01*
X18526Y235902D01*
X18530Y235882D01*
X18583Y235793D01*
X18632Y235702D01*
X18646Y235688D01*
X18656Y235671D01*
X18735Y235604D01*
X18810Y235533D01*
X18828Y235524D01*
X18843Y235511D01*
X18939Y235473D01*
X19033Y235429D01*
X19053Y235427D01*
X19071Y235419D01*
X19238Y235401D01*
X20001Y235401D01*
X20001Y235399D01*
X19238Y235399D01*
X19218Y235396D01*
X19199Y235398D01*
X19097Y235376D01*
X18995Y235359D01*
X18978Y235350D01*
X18958Y235346D01*
X18869Y235293D01*
X18778Y235244D01*
X18764Y235230D01*
X18747Y235220D01*
X18680Y235141D01*
X18609Y235066D01*
X18600Y235048D01*
X18587Y235033D01*
X18548Y234937D01*
X18505Y234843D01*
X18503Y234823D01*
X18495Y234805D01*
X18477Y234638D01*
X18477Y224582D01*
X17442Y224746D01*
X15807Y225278D01*
X14275Y226058D01*
X12884Y227069D01*
X12222Y227731D01*
X12164Y227773D01*
X12112Y227822D01*
X12065Y227844D01*
X12023Y227874D01*
X11954Y227895D01*
X11889Y227926D01*
X11837Y227931D01*
X11787Y227947D01*
X11716Y227945D01*
X11645Y227953D01*
X11594Y227942D01*
X11542Y227940D01*
X11474Y227916D01*
X11404Y227900D01*
X11359Y227874D01*
X11311Y227856D01*
X11255Y227811D01*
X11193Y227774D01*
X11159Y227735D01*
X11119Y227702D01*
X11080Y227642D01*
X11033Y227587D01*
X11014Y227539D01*
X10986Y227495D01*
X10968Y227426D01*
X10941Y227359D01*
X10933Y227288D01*
X10925Y227257D01*
X10927Y227233D01*
X10923Y227192D01*
X10923Y217489D01*
X10934Y217418D01*
X10936Y217347D01*
X10954Y217298D01*
X10962Y217246D01*
X10996Y217183D01*
X11021Y217116D01*
X11053Y217075D01*
X11078Y217029D01*
X11130Y216980D01*
X11174Y216924D01*
X11218Y216896D01*
X11256Y216860D01*
X11321Y216830D01*
X11381Y216791D01*
X11432Y216778D01*
X11479Y216756D01*
X11550Y216748D01*
X11620Y216731D01*
X11672Y216735D01*
X11723Y216729D01*
X11794Y216744D01*
X11865Y216750D01*
X11913Y216770D01*
X11964Y216781D01*
X12025Y216818D01*
X12091Y216846D01*
X12147Y216891D01*
X12175Y216907D01*
X12190Y216925D01*
X12222Y216951D01*
X14100Y218829D01*
X17928Y220415D01*
X22072Y220415D01*
X25900Y218829D01*
X28829Y215900D01*
X30415Y212072D01*
X30415Y207928D01*
X28829Y204100D01*
X25900Y201171D01*
X22072Y199585D01*
X17928Y199585D01*
X14100Y201171D01*
X12222Y203049D01*
X12164Y203091D01*
X12112Y203140D01*
X12065Y203162D01*
X12023Y203193D01*
X11954Y203214D01*
X11889Y203244D01*
X11837Y203250D01*
X11787Y203265D01*
X11716Y203263D01*
X11645Y203271D01*
X11594Y203260D01*
X11542Y203259D01*
X11474Y203234D01*
X11404Y203219D01*
X11359Y203192D01*
X11311Y203174D01*
X11255Y203129D01*
X11193Y203093D01*
X11159Y203053D01*
X11119Y203020D01*
X11080Y202960D01*
X11033Y202906D01*
X11014Y202857D01*
X10986Y202814D01*
X10968Y202744D01*
X10941Y202678D01*
X10933Y202606D01*
X10925Y202575D01*
X10927Y202552D01*
X10923Y202511D01*
X10923Y192089D01*
X10925Y192074D01*
X10924Y192061D01*
X10934Y192011D01*
X10936Y191947D01*
X10954Y191898D01*
X10962Y191846D01*
X10976Y191821D01*
X10976Y191820D01*
X10978Y191817D01*
X10996Y191783D01*
X11021Y191716D01*
X11053Y191675D01*
X11078Y191629D01*
X11130Y191580D01*
X11174Y191524D01*
X11218Y191496D01*
X11256Y191460D01*
X11321Y191430D01*
X11381Y191391D01*
X11432Y191378D01*
X11479Y191356D01*
X11550Y191348D01*
X11620Y191331D01*
X11672Y191335D01*
X11723Y191329D01*
X11794Y191344D01*
X11865Y191350D01*
X11913Y191370D01*
X11964Y191381D01*
X12025Y191418D01*
X12091Y191446D01*
X12143Y191487D01*
X12155Y191494D01*
X12159Y191498D01*
X12175Y191507D01*
X12190Y191525D01*
X12222Y191551D01*
X14100Y193429D01*
X17928Y195015D01*
X22072Y195015D01*
X25900Y193429D01*
X28829Y190500D01*
X30415Y186672D01*
X30415Y182528D01*
X28829Y178700D01*
X25900Y175771D01*
X22072Y174185D01*
X17928Y174185D01*
X14100Y175771D01*
X12222Y177649D01*
X12164Y177691D01*
X12112Y177740D01*
X12065Y177762D01*
X12023Y177793D01*
X11954Y177814D01*
X11889Y177844D01*
X11837Y177850D01*
X11787Y177865D01*
X11716Y177863D01*
X11645Y177871D01*
X11594Y177860D01*
X11542Y177859D01*
X11474Y177834D01*
X11404Y177819D01*
X11359Y177792D01*
X11311Y177774D01*
X11255Y177729D01*
X11193Y177693D01*
X11159Y177653D01*
X11119Y177620D01*
X11080Y177560D01*
X11033Y177506D01*
X11014Y177457D01*
X10986Y177414D01*
X10968Y177344D01*
X10941Y177278D01*
X10933Y177206D01*
X10925Y177175D01*
X10927Y177152D01*
X10923Y177111D01*
X10923Y14840D01*
X10937Y14750D01*
X10945Y14659D01*
X10957Y14629D01*
X10962Y14597D01*
X11005Y14516D01*
X11041Y14432D01*
X11067Y14400D01*
X11078Y14380D01*
X11101Y14357D01*
X11146Y14301D01*
X14301Y11146D01*
X14375Y11093D01*
X14445Y11033D01*
X14475Y11021D01*
X14501Y11002D01*
X14588Y10975D01*
X14673Y10941D01*
X14714Y10937D01*
X14736Y10930D01*
X14768Y10931D01*
X14840Y10923D01*
X28453Y10923D01*
X28524Y10934D01*
G37*
%LPC*%
G36*
X108422Y106189D02*
X108422Y106189D01*
X106189Y108422D01*
X106189Y291578D01*
X108422Y293811D01*
X241578Y293811D01*
X242689Y292700D01*
X242763Y292647D01*
X242833Y292587D01*
X242863Y292575D01*
X242889Y292556D01*
X242976Y292529D01*
X243061Y292495D01*
X243102Y292491D01*
X243124Y292484D01*
X243156Y292485D01*
X243228Y292477D01*
X250477Y292477D01*
X250477Y273557D01*
X249298Y273743D01*
X247570Y274305D01*
X245951Y275129D01*
X245019Y275807D01*
X245009Y275812D01*
X245000Y275820D01*
X244899Y275867D01*
X244800Y275917D01*
X244788Y275919D01*
X244777Y275924D01*
X244666Y275936D01*
X244556Y275952D01*
X244544Y275950D01*
X244533Y275951D01*
X244424Y275927D01*
X244314Y275907D01*
X244304Y275901D01*
X244292Y275899D01*
X244196Y275841D01*
X244099Y275787D01*
X244091Y275779D01*
X244081Y275772D01*
X244009Y275688D01*
X243934Y275606D01*
X243929Y275595D01*
X243921Y275586D01*
X243879Y275482D01*
X243835Y275380D01*
X243834Y275369D01*
X243829Y275357D01*
X243811Y275191D01*
X243811Y108422D01*
X241578Y106189D01*
X108422Y106189D01*
G37*
%LPD*%
G36*
X240020Y109242D02*
X240020Y109242D01*
X240039Y109240D01*
X240141Y109262D01*
X240243Y109279D01*
X240260Y109288D01*
X240280Y109292D01*
X240369Y109345D01*
X240460Y109394D01*
X240474Y109408D01*
X240491Y109418D01*
X240558Y109497D01*
X240630Y109572D01*
X240638Y109590D01*
X240651Y109605D01*
X240690Y109701D01*
X240733Y109795D01*
X240735Y109815D01*
X240743Y109833D01*
X240761Y110000D01*
X240761Y290000D01*
X240758Y290020D01*
X240760Y290039D01*
X240738Y290141D01*
X240722Y290243D01*
X240712Y290260D01*
X240708Y290280D01*
X240655Y290369D01*
X240606Y290460D01*
X240592Y290474D01*
X240582Y290491D01*
X240503Y290558D01*
X240428Y290630D01*
X240410Y290638D01*
X240395Y290651D01*
X240299Y290690D01*
X240205Y290733D01*
X240185Y290735D01*
X240167Y290743D01*
X240000Y290761D01*
X110000Y290761D01*
X109980Y290758D01*
X109961Y290760D01*
X109859Y290738D01*
X109757Y290722D01*
X109740Y290712D01*
X109720Y290708D01*
X109631Y290655D01*
X109540Y290606D01*
X109526Y290592D01*
X109509Y290582D01*
X109442Y290503D01*
X109371Y290428D01*
X109362Y290410D01*
X109349Y290395D01*
X109310Y290299D01*
X109267Y290205D01*
X109265Y290185D01*
X109257Y290167D01*
X109239Y290000D01*
X109239Y110000D01*
X109242Y109980D01*
X109240Y109961D01*
X109262Y109859D01*
X109279Y109757D01*
X109288Y109740D01*
X109292Y109720D01*
X109345Y109631D01*
X109394Y109540D01*
X109408Y109526D01*
X109418Y109509D01*
X109497Y109442D01*
X109572Y109371D01*
X109590Y109362D01*
X109605Y109349D01*
X109701Y109310D01*
X109795Y109267D01*
X109815Y109265D01*
X109833Y109257D01*
X110000Y109239D01*
X240000Y109239D01*
X240020Y109242D01*
G37*
%LPC*%
G36*
X32196Y110617D02*
X32196Y110617D01*
X26817Y115996D01*
X26817Y123604D01*
X32196Y128983D01*
X35489Y128983D01*
X35536Y128990D01*
X35584Y128989D01*
X35657Y129010D01*
X35731Y129022D01*
X35774Y129045D01*
X35820Y129059D01*
X35882Y129102D01*
X35949Y129138D01*
X35982Y129172D01*
X36021Y129200D01*
X36066Y129261D01*
X36118Y129316D01*
X36138Y129359D01*
X36167Y129398D01*
X36190Y129470D01*
X36222Y129539D01*
X36227Y129587D01*
X36242Y129632D01*
X36241Y129708D01*
X36249Y129783D01*
X36239Y129830D01*
X36238Y129878D01*
X36213Y129950D01*
X36197Y130024D01*
X36172Y130065D01*
X36156Y130110D01*
X36109Y130170D01*
X36070Y130235D01*
X36034Y130266D01*
X36004Y130304D01*
X35901Y130380D01*
X35884Y130395D01*
X35877Y130397D01*
X35869Y130403D01*
X33114Y131994D01*
X27994Y137114D01*
X24373Y143385D01*
X22499Y150379D01*
X22499Y157621D01*
X24373Y164615D01*
X27994Y170886D01*
X33114Y176006D01*
X39385Y179627D01*
X46379Y181501D01*
X53621Y181501D01*
X60615Y179627D01*
X66886Y176006D01*
X72006Y170886D01*
X75627Y164615D01*
X77501Y157621D01*
X77501Y150379D01*
X75627Y143385D01*
X72006Y137114D01*
X66886Y131994D01*
X64131Y130403D01*
X64094Y130373D01*
X64051Y130350D01*
X63999Y130296D01*
X63940Y130247D01*
X63915Y130207D01*
X63882Y130172D01*
X63850Y130103D01*
X63810Y130039D01*
X63798Y129992D01*
X63778Y129949D01*
X63770Y129874D01*
X63752Y129800D01*
X63756Y129752D01*
X63751Y129705D01*
X63767Y129630D01*
X63774Y129555D01*
X63793Y129511D01*
X63803Y129464D01*
X63842Y129399D01*
X63873Y129330D01*
X63905Y129294D01*
X63930Y129253D01*
X63987Y129204D01*
X64038Y129148D01*
X64080Y129124D01*
X64116Y129093D01*
X64187Y129065D01*
X64253Y129028D01*
X64300Y129019D01*
X64345Y129001D01*
X64473Y128987D01*
X64495Y128983D01*
X64501Y128984D01*
X64511Y128983D01*
X67804Y128983D01*
X73183Y123604D01*
X73183Y115996D01*
X67804Y110617D01*
X60196Y110617D01*
X54817Y115996D01*
X54817Y123604D01*
X57202Y125988D01*
X57230Y126027D01*
X57265Y126060D01*
X57301Y126126D01*
X57346Y126188D01*
X57360Y126234D01*
X57383Y126276D01*
X57396Y126351D01*
X57418Y126423D01*
X57417Y126471D01*
X57425Y126518D01*
X57413Y126593D01*
X57412Y126669D01*
X57395Y126714D01*
X57388Y126761D01*
X57353Y126829D01*
X57327Y126900D01*
X57297Y126938D01*
X57275Y126980D01*
X57221Y127033D01*
X57173Y127092D01*
X57133Y127118D01*
X57099Y127151D01*
X57030Y127184D01*
X56966Y127225D01*
X56920Y127237D01*
X56877Y127257D01*
X56801Y127267D01*
X56728Y127285D01*
X56680Y127281D01*
X56633Y127287D01*
X56505Y127268D01*
X56483Y127266D01*
X56477Y127263D01*
X56467Y127262D01*
X53621Y126499D01*
X46379Y126499D01*
X43533Y127262D01*
X43486Y127267D01*
X43440Y127281D01*
X43364Y127279D01*
X43289Y127286D01*
X43242Y127276D01*
X43194Y127274D01*
X43123Y127248D01*
X43049Y127231D01*
X43008Y127206D01*
X42963Y127190D01*
X42904Y127143D01*
X42839Y127103D01*
X42808Y127066D01*
X42771Y127036D01*
X42730Y126973D01*
X42681Y126914D01*
X42664Y126870D01*
X42638Y126829D01*
X42619Y126756D01*
X42592Y126685D01*
X42589Y126637D01*
X42578Y126591D01*
X42584Y126515D01*
X42580Y126440D01*
X42593Y126393D01*
X42597Y126346D01*
X42627Y126276D01*
X42647Y126203D01*
X42674Y126163D01*
X42693Y126119D01*
X42774Y126019D01*
X42786Y126000D01*
X42792Y125996D01*
X42798Y125988D01*
X45183Y123604D01*
X45183Y115996D01*
X39804Y110617D01*
X32196Y110617D01*
G37*
%LPD*%
%LPC*%
G36*
X276012Y112428D02*
X276012Y112428D01*
X270428Y118012D01*
X270428Y125909D01*
X276012Y131493D01*
X282872Y131493D01*
X282920Y131501D01*
X282968Y131499D01*
X283040Y131521D01*
X283115Y131533D01*
X283158Y131555D01*
X283204Y131569D01*
X283266Y131613D01*
X283333Y131648D01*
X283366Y131683D01*
X283405Y131710D01*
X283450Y131771D01*
X283502Y131826D01*
X283522Y131870D01*
X283551Y131909D01*
X283574Y131981D01*
X283606Y132049D01*
X283611Y132097D01*
X283626Y132143D01*
X283624Y132219D01*
X283633Y132294D01*
X283623Y132341D01*
X283622Y132389D01*
X283597Y132460D01*
X283580Y132534D01*
X283556Y132576D01*
X283540Y132621D01*
X283493Y132680D01*
X283454Y132745D01*
X283418Y132777D01*
X283388Y132814D01*
X283285Y132891D01*
X283267Y132905D01*
X283261Y132908D01*
X283253Y132914D01*
X283114Y132994D01*
X277994Y138114D01*
X274373Y144385D01*
X272499Y151379D01*
X272499Y158621D01*
X274373Y165615D01*
X277994Y171886D01*
X283114Y177006D01*
X289385Y180627D01*
X296379Y182501D01*
X303621Y182501D01*
X310615Y180627D01*
X316886Y177006D01*
X322006Y171886D01*
X325627Y165615D01*
X327501Y158621D01*
X327501Y151379D01*
X325627Y144385D01*
X322006Y138114D01*
X316886Y132994D01*
X310615Y129373D01*
X303621Y127499D01*
X296379Y127499D01*
X289385Y129373D01*
X286452Y131067D01*
X286429Y131075D01*
X286410Y131090D01*
X286314Y131119D01*
X286222Y131154D01*
X286198Y131155D01*
X286175Y131162D01*
X286075Y131159D01*
X285976Y131163D01*
X285953Y131156D01*
X285929Y131156D01*
X285835Y131121D01*
X285740Y131093D01*
X285720Y131079D01*
X285698Y131071D01*
X285620Y131009D01*
X285539Y130952D01*
X285524Y130932D01*
X285506Y130917D01*
X285452Y130834D01*
X285393Y130754D01*
X285386Y130731D01*
X285373Y130710D01*
X285348Y130614D01*
X285318Y130519D01*
X285318Y130495D01*
X285313Y130472D01*
X285320Y130373D01*
X285322Y130273D01*
X285330Y130251D01*
X285332Y130227D01*
X285371Y130135D01*
X285404Y130041D01*
X285419Y130022D01*
X285428Y130000D01*
X285533Y129869D01*
X289493Y125909D01*
X289493Y118012D01*
X283909Y112428D01*
X276012Y112428D01*
G37*
%LPD*%
%LPC*%
G36*
X171379Y221499D02*
X171379Y221499D01*
X164385Y223373D01*
X158114Y226994D01*
X152994Y232114D01*
X149373Y238385D01*
X147499Y245379D01*
X147499Y252621D01*
X149373Y259615D01*
X152994Y265886D01*
X158114Y271006D01*
X164385Y274627D01*
X171379Y276501D01*
X178621Y276501D01*
X185615Y274627D01*
X191886Y271006D01*
X197006Y265886D01*
X200627Y259615D01*
X202501Y252621D01*
X202501Y245379D01*
X200627Y238385D01*
X197006Y232114D01*
X191886Y226994D01*
X185615Y223373D01*
X178621Y221499D01*
X171379Y221499D01*
G37*
%LPD*%
%LPC*%
G36*
X288805Y252967D02*
X288805Y252967D01*
X284750Y254647D01*
X281647Y257750D01*
X279967Y261805D01*
X279967Y266195D01*
X281647Y270250D01*
X284750Y273353D01*
X288805Y275033D01*
X311195Y275033D01*
X315250Y273353D01*
X318353Y270250D01*
X320033Y266195D01*
X320033Y261805D01*
X318353Y257750D01*
X315250Y254647D01*
X311195Y252967D01*
X288805Y252967D01*
G37*
%LPD*%
%LPC*%
G36*
X147680Y43427D02*
X147680Y43427D01*
X144132Y44897D01*
X141417Y47612D01*
X139947Y51160D01*
X139947Y70240D01*
X141417Y73788D01*
X144132Y76503D01*
X147680Y77973D01*
X151520Y77973D01*
X155068Y76503D01*
X157783Y73788D01*
X159253Y70240D01*
X159253Y51160D01*
X157783Y47612D01*
X155068Y44897D01*
X151520Y43427D01*
X147680Y43427D01*
G37*
%LPD*%
%LPC*%
G36*
X173080Y43427D02*
X173080Y43427D01*
X169532Y44897D01*
X166817Y47612D01*
X165347Y51160D01*
X165347Y70240D01*
X166817Y73788D01*
X169532Y76503D01*
X173080Y77973D01*
X176920Y77973D01*
X180468Y76503D01*
X183183Y73788D01*
X184653Y70240D01*
X184653Y51160D01*
X183183Y47612D01*
X180468Y44897D01*
X176920Y43427D01*
X173080Y43427D01*
G37*
%LPD*%
%LPC*%
G36*
X198480Y43427D02*
X198480Y43427D01*
X194932Y44897D01*
X192217Y47612D01*
X190747Y51160D01*
X190747Y70240D01*
X192217Y73788D01*
X194932Y76503D01*
X198480Y77973D01*
X202320Y77973D01*
X205868Y76503D01*
X208583Y73788D01*
X210053Y70240D01*
X210053Y51160D01*
X208583Y47612D01*
X205868Y44897D01*
X202320Y43427D01*
X198480Y43427D01*
G37*
%LPD*%
%LPC*%
G36*
X280156Y28217D02*
X280156Y28217D01*
X275826Y30011D01*
X272511Y33326D01*
X270717Y37656D01*
X270717Y42344D01*
X272511Y46674D01*
X275826Y49989D01*
X280156Y51783D01*
X284844Y51783D01*
X289174Y49989D01*
X292489Y46674D01*
X294283Y42344D01*
X294283Y37656D01*
X292489Y33326D01*
X289174Y30011D01*
X284844Y28217D01*
X280156Y28217D01*
G37*
%LPD*%
%LPC*%
G36*
X255676Y126515D02*
X255676Y126515D01*
X251381Y128294D01*
X248094Y131581D01*
X246315Y135876D01*
X246315Y140524D01*
X248094Y144819D01*
X251381Y148106D01*
X255676Y149885D01*
X260324Y149885D01*
X264619Y148106D01*
X267906Y144819D01*
X269685Y140524D01*
X269685Y135876D01*
X267906Y131581D01*
X264619Y128294D01*
X260324Y126515D01*
X255676Y126515D01*
G37*
%LPD*%
%LPC*%
G36*
X255676Y228115D02*
X255676Y228115D01*
X251381Y229894D01*
X248094Y233181D01*
X246315Y237476D01*
X246315Y242124D01*
X248094Y246419D01*
X251381Y249706D01*
X255676Y251485D01*
X260324Y251485D01*
X264619Y249706D01*
X267906Y246419D01*
X269685Y242124D01*
X269685Y237476D01*
X267906Y233181D01*
X264619Y229894D01*
X260324Y228115D01*
X255676Y228115D01*
G37*
%LPD*%
%LPC*%
G36*
X109999Y59839D02*
X109999Y59839D01*
X109999Y60602D01*
X109996Y60622D01*
X109998Y60641D01*
X109976Y60743D01*
X109959Y60845D01*
X109950Y60862D01*
X109946Y60882D01*
X109893Y60971D01*
X109844Y61062D01*
X109830Y61076D01*
X109820Y61093D01*
X109741Y61160D01*
X109666Y61231D01*
X109648Y61240D01*
X109633Y61253D01*
X109537Y61292D01*
X109443Y61335D01*
X109423Y61337D01*
X109405Y61345D01*
X109238Y61363D01*
X99959Y61363D01*
X99959Y63999D01*
X105841Y69881D01*
X106079Y69881D01*
X106175Y69896D01*
X106272Y69906D01*
X106296Y69916D01*
X106322Y69920D01*
X106408Y69966D01*
X106497Y70006D01*
X106516Y70023D01*
X106539Y70036D01*
X106606Y70106D01*
X106678Y70172D01*
X106691Y70195D01*
X106709Y70214D01*
X106750Y70302D01*
X106797Y70388D01*
X106801Y70413D01*
X106812Y70437D01*
X106823Y70534D01*
X106840Y70630D01*
X106836Y70656D01*
X106839Y70681D01*
X106819Y70777D01*
X106804Y70873D01*
X106793Y70896D01*
X106787Y70922D01*
X106737Y71005D01*
X106693Y71092D01*
X106674Y71111D01*
X106661Y71133D01*
X106587Y71196D01*
X106517Y71264D01*
X106489Y71280D01*
X106474Y71293D01*
X106443Y71305D01*
X106370Y71345D01*
X104600Y72079D01*
X101919Y74760D01*
X100467Y78264D01*
X100467Y82056D01*
X101919Y85560D01*
X104600Y88241D01*
X108104Y89693D01*
X111896Y89693D01*
X115400Y88241D01*
X118081Y85560D01*
X119533Y82056D01*
X119533Y78264D01*
X118081Y74760D01*
X115400Y72079D01*
X113630Y71345D01*
X113547Y71294D01*
X113461Y71248D01*
X113443Y71230D01*
X113421Y71216D01*
X113358Y71140D01*
X113291Y71070D01*
X113280Y71046D01*
X113264Y71026D01*
X113229Y70935D01*
X113188Y70847D01*
X113185Y70821D01*
X113176Y70797D01*
X113171Y70699D01*
X113161Y70603D01*
X113166Y70577D01*
X113165Y70551D01*
X113192Y70457D01*
X113213Y70362D01*
X113226Y70340D01*
X113234Y70315D01*
X113289Y70235D01*
X113339Y70151D01*
X113359Y70134D01*
X113374Y70113D01*
X113452Y70054D01*
X113526Y69991D01*
X113550Y69981D01*
X113571Y69966D01*
X113664Y69936D01*
X113754Y69899D01*
X113787Y69896D01*
X113805Y69890D01*
X113838Y69890D01*
X113921Y69881D01*
X114159Y69881D01*
X120041Y63999D01*
X120041Y61363D01*
X110762Y61363D01*
X110742Y61360D01*
X110723Y61362D01*
X110621Y61340D01*
X110519Y61323D01*
X110502Y61314D01*
X110482Y61310D01*
X110393Y61257D01*
X110302Y61208D01*
X110288Y61194D01*
X110271Y61184D01*
X110204Y61105D01*
X110133Y61030D01*
X110124Y61012D01*
X110111Y60997D01*
X110073Y60901D01*
X110029Y60807D01*
X110027Y60787D01*
X110019Y60769D01*
X110001Y60602D01*
X110001Y59839D01*
X109999Y59839D01*
G37*
%LPD*%
%LPC*%
G36*
X122986Y305585D02*
X122986Y305585D01*
X116885Y311686D01*
X116885Y320314D01*
X122986Y326415D01*
X131614Y326415D01*
X137715Y320314D01*
X137715Y311686D01*
X131614Y305585D01*
X122986Y305585D01*
G37*
%LPD*%
%LPC*%
G36*
X226051Y60867D02*
X226051Y60867D01*
X220467Y66451D01*
X220467Y74349D01*
X226051Y79933D01*
X233949Y79933D01*
X239533Y74349D01*
X239533Y66451D01*
X233949Y60867D01*
X226051Y60867D01*
G37*
%LPD*%
%LPC*%
G36*
X240091Y76507D02*
X240091Y76507D01*
X234507Y82091D01*
X234507Y89988D01*
X240091Y95572D01*
X247988Y95572D01*
X253572Y89988D01*
X253572Y82091D01*
X247988Y76507D01*
X240091Y76507D01*
G37*
%LPD*%
%LPC*%
G36*
X46196Y210017D02*
X46196Y210017D01*
X40817Y215396D01*
X40817Y223004D01*
X46196Y228383D01*
X53804Y228383D01*
X59183Y223004D01*
X59183Y215396D01*
X53804Y210017D01*
X46196Y210017D01*
G37*
%LPD*%
%LPC*%
G36*
X76196Y311617D02*
X76196Y311617D01*
X70817Y316996D01*
X70817Y324604D01*
X76196Y329983D01*
X83804Y329983D01*
X89183Y324604D01*
X89183Y316996D01*
X83804Y311617D01*
X76196Y311617D01*
G37*
%LPD*%
%LPC*%
G36*
X76196Y210017D02*
X76196Y210017D01*
X70817Y215396D01*
X70817Y223004D01*
X76196Y228383D01*
X83804Y228383D01*
X89183Y223004D01*
X89183Y215396D01*
X83804Y210017D01*
X76196Y210017D01*
G37*
%LPD*%
%LPC*%
G36*
X253523Y295523D02*
X253523Y295523D01*
X253523Y314443D01*
X254702Y314257D01*
X256430Y313695D01*
X258049Y312871D01*
X259518Y311803D01*
X260803Y310518D01*
X261871Y309049D01*
X262695Y307430D01*
X263257Y305702D01*
X263541Y303908D01*
X263541Y295523D01*
X253523Y295523D01*
G37*
%LPD*%
%LPC*%
G36*
X301523Y323523D02*
X301523Y323523D01*
X301523Y333541D01*
X309908Y333541D01*
X311702Y333257D01*
X313430Y332695D01*
X315049Y331871D01*
X316518Y330803D01*
X317803Y329518D01*
X318871Y328049D01*
X319695Y326430D01*
X320257Y324702D01*
X320443Y323523D01*
X301523Y323523D01*
G37*
%LPD*%
%LPC*%
G36*
X279557Y323523D02*
X279557Y323523D01*
X279743Y324702D01*
X280305Y326430D01*
X281129Y328049D01*
X282197Y329518D01*
X283482Y330803D01*
X284951Y331871D01*
X286570Y332695D01*
X288298Y333257D01*
X290092Y333541D01*
X298477Y333541D01*
X298477Y323523D01*
X279557Y323523D01*
G37*
%LPD*%
%LPC*%
G36*
X253523Y292477D02*
X253523Y292477D01*
X263541Y292477D01*
X263541Y284092D01*
X263257Y282298D01*
X262695Y280570D01*
X261871Y278951D01*
X260803Y277482D01*
X259518Y276197D01*
X258049Y275129D01*
X256430Y274305D01*
X254702Y273743D01*
X253523Y273557D01*
X253523Y292477D01*
G37*
%LPD*%
%LPC*%
G36*
X240459Y295523D02*
X240459Y295523D01*
X240459Y303908D01*
X240743Y305702D01*
X241305Y307430D01*
X242129Y309049D01*
X243197Y310518D01*
X244482Y311803D01*
X245951Y312871D01*
X247570Y313695D01*
X249298Y314257D01*
X250477Y314443D01*
X250477Y295523D01*
X240459Y295523D01*
G37*
%LPD*%
%LPC*%
G36*
X301523Y310459D02*
X301523Y310459D01*
X301523Y320477D01*
X320443Y320477D01*
X320257Y319298D01*
X319695Y317570D01*
X318871Y315951D01*
X317803Y314482D01*
X316518Y313197D01*
X315049Y312129D01*
X313430Y311305D01*
X311702Y310743D01*
X309908Y310459D01*
X301523Y310459D01*
G37*
%LPD*%
%LPC*%
G36*
X290092Y310459D02*
X290092Y310459D01*
X288298Y310743D01*
X286570Y311305D01*
X284951Y312129D01*
X283482Y313197D01*
X282197Y314482D01*
X281129Y315951D01*
X280305Y317570D01*
X279743Y319298D01*
X279557Y320477D01*
X298477Y320477D01*
X298477Y310459D01*
X290092Y310459D01*
G37*
%LPD*%
%LPC*%
G36*
X208823Y319209D02*
X208823Y319209D01*
X208823Y328477D01*
X218091Y328477D01*
X218091Y321416D01*
X217918Y320769D01*
X217583Y320190D01*
X217110Y319717D01*
X216531Y319382D01*
X215884Y319209D01*
X208823Y319209D01*
G37*
%LPD*%
%LPC*%
G36*
X198716Y319209D02*
X198716Y319209D01*
X198069Y319382D01*
X197490Y319717D01*
X197017Y320190D01*
X196682Y320769D01*
X196509Y321416D01*
X196509Y328477D01*
X205777Y328477D01*
X205777Y319209D01*
X198716Y319209D01*
G37*
%LPD*%
%LPC*%
G36*
X319023Y41523D02*
X319023Y41523D01*
X319023Y52203D01*
X320378Y51988D01*
X322218Y51390D01*
X323942Y50512D01*
X325507Y49375D01*
X326875Y48007D01*
X328012Y46442D01*
X328890Y44718D01*
X329488Y42878D01*
X329703Y41523D01*
X319023Y41523D01*
G37*
%LPD*%
%LPC*%
G36*
X305297Y41523D02*
X305297Y41523D01*
X305512Y42878D01*
X306110Y44718D01*
X306988Y46442D01*
X308125Y48007D01*
X309493Y49375D01*
X311058Y50512D01*
X312782Y51390D01*
X314622Y51988D01*
X315977Y52203D01*
X315977Y41523D01*
X305297Y41523D01*
G37*
%LPD*%
%LPC*%
G36*
X319023Y38477D02*
X319023Y38477D01*
X329703Y38477D01*
X329488Y37122D01*
X328890Y35282D01*
X328012Y33558D01*
X326875Y31993D01*
X325507Y30625D01*
X323942Y29488D01*
X322218Y28610D01*
X320378Y28012D01*
X319023Y27797D01*
X319023Y38477D01*
G37*
%LPD*%
%LPC*%
G36*
X314622Y28012D02*
X314622Y28012D01*
X312782Y28610D01*
X311058Y29488D01*
X309493Y30625D01*
X308125Y31993D01*
X306988Y33558D01*
X306110Y35282D01*
X305512Y37122D01*
X305297Y38477D01*
X315977Y38477D01*
X315977Y27797D01*
X314622Y28012D01*
G37*
%LPD*%
%LPC*%
G36*
X154223Y317523D02*
X154223Y317523D01*
X154223Y326923D01*
X157224Y326923D01*
X163623Y320524D01*
X163623Y317523D01*
X154223Y317523D01*
G37*
%LPD*%
%LPC*%
G36*
X141777Y317523D02*
X141777Y317523D01*
X141777Y320524D01*
X148176Y326923D01*
X151177Y326923D01*
X151177Y317523D01*
X141777Y317523D01*
G37*
%LPD*%
%LPC*%
G36*
X154223Y305077D02*
X154223Y305077D01*
X154223Y314477D01*
X163623Y314477D01*
X163623Y311476D01*
X157224Y305077D01*
X154223Y305077D01*
G37*
%LPD*%
%LPC*%
G36*
X148176Y305077D02*
X148176Y305077D01*
X141777Y311476D01*
X141777Y314477D01*
X151177Y314477D01*
X151177Y305077D01*
X148176Y305077D01*
G37*
%LPD*%
%LPC*%
G36*
X21523Y236923D02*
X21523Y236923D01*
X21523Y246218D01*
X22558Y246054D01*
X24193Y245522D01*
X25725Y244742D01*
X27116Y243731D01*
X28331Y242516D01*
X29342Y241125D01*
X30122Y239593D01*
X30654Y237958D01*
X30818Y236923D01*
X21523Y236923D01*
G37*
%LPD*%
%LPC*%
G36*
X21523Y233877D02*
X21523Y233877D01*
X30818Y233877D01*
X30654Y232842D01*
X30122Y231207D01*
X29342Y229675D01*
X28331Y228284D01*
X27116Y227069D01*
X25725Y226058D01*
X24193Y225278D01*
X22558Y224746D01*
X21523Y224582D01*
X21523Y233877D01*
G37*
%LPD*%
%LPC*%
G36*
X231523Y21123D02*
X231523Y21123D01*
X231523Y29641D01*
X234159Y29641D01*
X240041Y23759D01*
X240041Y21123D01*
X231523Y21123D01*
G37*
%LPD*%
%LPC*%
G36*
X219959Y21123D02*
X219959Y21123D01*
X219959Y23759D01*
X225841Y29641D01*
X228477Y29641D01*
X228477Y21123D01*
X219959Y21123D01*
G37*
%LPD*%
%LPC*%
G36*
X111523Y49799D02*
X111523Y49799D01*
X111523Y58317D01*
X120041Y58317D01*
X120041Y55681D01*
X114159Y49799D01*
X111523Y49799D01*
G37*
%LPD*%
%LPC*%
G36*
X105841Y49799D02*
X105841Y49799D01*
X99959Y55681D01*
X99959Y58317D01*
X108477Y58317D01*
X108477Y49799D01*
X105841Y49799D01*
G37*
%LPD*%
%LPC*%
G36*
X51523Y322323D02*
X51523Y322323D01*
X51523Y330491D01*
X54014Y330491D01*
X59691Y324814D01*
X59691Y322323D01*
X51523Y322323D01*
G37*
%LPD*%
%LPC*%
G36*
X40309Y322323D02*
X40309Y322323D01*
X40309Y324814D01*
X45986Y330491D01*
X48477Y330491D01*
X48477Y322323D01*
X40309Y322323D01*
G37*
%LPD*%
%LPC*%
G36*
X51523Y311109D02*
X51523Y311109D01*
X51523Y319277D01*
X59691Y319277D01*
X59691Y316786D01*
X54014Y311109D01*
X51523Y311109D01*
G37*
%LPD*%
%LPC*%
G36*
X45986Y311109D02*
X45986Y311109D01*
X40309Y316786D01*
X40309Y319277D01*
X48477Y319277D01*
X48477Y311109D01*
X45986Y311109D01*
G37*
%LPD*%
%LPC*%
G36*
X152699Y315999D02*
X152699Y315999D01*
X152699Y316001D01*
X152701Y316001D01*
X152701Y315999D01*
X152699Y315999D01*
G37*
%LPD*%
%LPC*%
G36*
X317499Y39999D02*
X317499Y39999D01*
X317499Y40001D01*
X317501Y40001D01*
X317501Y39999D01*
X317499Y39999D01*
G37*
%LPD*%
%LPC*%
G36*
X49999Y320799D02*
X49999Y320799D01*
X49999Y320801D01*
X50001Y320801D01*
X50001Y320799D01*
X49999Y320799D01*
G37*
%LPD*%
%LPC*%
G36*
X299999Y321999D02*
X299999Y321999D01*
X299999Y322001D01*
X300001Y322001D01*
X300001Y321999D01*
X299999Y321999D01*
G37*
%LPD*%
%LPC*%
G36*
X251999Y293999D02*
X251999Y293999D01*
X251999Y294001D01*
X252001Y294001D01*
X252001Y293999D01*
X251999Y293999D01*
G37*
%LPD*%
D10*
X110000Y59840D03*
D11*
X110000Y80160D03*
D10*
X230000Y70400D03*
X230000Y19600D03*
D12*
X258000Y239800D03*
X258000Y138200D03*
D13*
X149600Y68320D02*
X149600Y53080D01*
X175000Y53080D02*
X175000Y68320D01*
X200400Y68320D02*
X200400Y53080D01*
D14*
X317500Y40000D03*
X282500Y40000D03*
D15*
X36000Y18200D03*
X36000Y119800D03*
D16*
X64000Y119800D03*
X64000Y18200D03*
D17*
X291000Y322000D02*
X309000Y322000D01*
X309000Y264000D02*
X291000Y264000D01*
X252000Y285000D02*
X252000Y303000D01*
D18*
X279961Y121961D03*
X244039Y86039D03*
D19*
X207300Y330000D03*
D20*
X232700Y330000D03*
D21*
X330000Y210000D03*
X330000Y235400D03*
X330000Y184600D03*
X20000Y210000D03*
X20000Y184600D03*
X20000Y235400D03*
D16*
X50000Y320800D03*
X50000Y219200D03*
X80000Y320800D03*
X80000Y219200D03*
D22*
X127300Y316000D03*
X152700Y316000D03*
D12*
X99200Y22000D03*
X200800Y22000D03*
D23*
X50000Y250000D03*
X50000Y290000D03*
X80000Y290000D03*
X80000Y250000D03*
X280000Y210000D03*
X320000Y70000D03*
X300000Y70000D03*
X280000Y20000D03*
X300000Y20000D03*
X320000Y20000D03*
X70000Y90000D03*
X50000Y90000D03*
X30000Y90000D03*
X30000Y40000D03*
X50000Y40000D03*
X70000Y40000D03*
X20000Y320000D03*
X20000Y300000D03*
X180000Y310000D03*
X200000Y310000D03*
X220000Y310000D03*
X330000Y310000D03*
X330000Y290000D03*
X330000Y270000D03*
X290000Y100000D03*
X320000Y100000D03*
X180000Y100000D03*
X150000Y100000D03*
X120000Y100000D03*
X160000Y40000D03*
X210000Y260000D03*
X210000Y240000D03*
X210000Y220000D03*
X190000Y220000D03*
X160000Y220000D03*
X140000Y220000D03*
X140000Y240000D03*
X140000Y260000D03*
X140000Y200000D03*
X140000Y180000D03*
X140000Y160000D03*
X140000Y140000D03*
X160000Y140000D03*
X160000Y160000D03*
X160000Y180000D03*
X160000Y200000D03*
X190000Y200000D03*
X190000Y180000D03*
X190000Y160000D03*
X190000Y140000D03*
X210000Y140000D03*
X210000Y160000D03*
X210000Y180000D03*
X210000Y200000D03*
X120000Y140000D03*
X120000Y160000D03*
X120000Y180000D03*
X120000Y200000D03*
X120000Y220000D03*
X120000Y240000D03*
X120000Y260000D03*
X120000Y280000D03*
X140000Y280000D03*
X160000Y280000D03*
X190000Y280000D03*
X210000Y280000D03*
X175000Y210000D03*
X175000Y190000D03*
X175000Y170000D03*
X175000Y150000D03*
X175000Y130000D03*
X160000Y120000D03*
X140000Y120000D03*
X120000Y120000D03*
X190000Y120000D03*
X210000Y120000D03*
X230000Y120000D03*
X230000Y140000D03*
X230000Y160000D03*
X230000Y180000D03*
X230000Y200000D03*
X230000Y220000D03*
X230000Y240000D03*
X230000Y260000D03*
X230000Y280000D03*
M02*
