G04 EAGLE Gerber RS-274X export*
G75*
%MOMM*%
%FSLAX34Y34*%
%LPD*%
%INSoldermask Bottom*%
%IPPOS*%
%AMOC8*
5,1,8,0,0,1.08239X$1,22.5*%
G01*
%ADD10C,3.453200*%
%ADD11P,1.843527X8X292.500000*%
%ADD12C,1.703200*%
%ADD13C,2.133600*%
%ADD14C,1.727200*%
%ADD15C,2.153200*%
%ADD16P,1.767759X8X112.500000*%
%ADD17P,1.767759X8X292.500000*%
%ADD18C,2.003200*%
%ADD19P,1.843527X8X247.500000*%
%ADD20R,1.853200X1.853200*%
%ADD21C,1.853200*%
%ADD22C,1.879600*%
%ADD23P,2.034460X8X22.500000*%


D10*
X300000Y155000D03*
X50000Y154000D03*
X175000Y249000D03*
D11*
X110000Y59840D03*
D12*
X110000Y80160D03*
D11*
X230000Y70400D03*
X230000Y19600D03*
D13*
X258000Y239800D03*
X258000Y138200D03*
D14*
X149600Y68320D02*
X149600Y53080D01*
X175000Y53080D02*
X175000Y68320D01*
X200400Y68320D02*
X200400Y53080D01*
D15*
X317500Y40000D03*
X282500Y40000D03*
D16*
X36000Y18200D03*
X36000Y119800D03*
D17*
X64000Y119800D03*
X64000Y18200D03*
D18*
X291000Y322000D02*
X309000Y322000D01*
X309000Y264000D02*
X291000Y264000D01*
X252000Y285000D02*
X252000Y303000D01*
D19*
X279961Y121961D03*
X244039Y86039D03*
D20*
X207300Y330000D03*
D21*
X232700Y330000D03*
D22*
X330000Y210000D03*
X330000Y235400D03*
X330000Y184600D03*
X20000Y210000D03*
X20000Y184600D03*
X20000Y235400D03*
D17*
X50000Y320800D03*
X50000Y219200D03*
X80000Y320800D03*
X80000Y219200D03*
D23*
X127300Y316000D03*
X152700Y316000D03*
D13*
X99200Y22000D03*
X200800Y22000D03*
M02*
